<svg width="50" height="50" viewBox="0 0 50 50" fill="none" xmlns="http://www.w3.org/2000/svg">
<path d="M31.2501 29.1667V22.9167H37.5001V18.75L45.8334 26.0417L37.5001 33.3333V29.1667H31.2501ZM29.1667 16.0417V18.75H4.16675V16.0417L16.6667 8.33333L29.1667 16.0417ZM14.5834 20.8333H18.7501V31.25H14.5834V20.8333ZM6.25008 20.8333H10.4167V31.25H6.25008V20.8333ZM27.0834 20.8333V26.0417L22.9167 29.7917V20.8333H27.0834ZM18.9584 33.3333L17.7084 34.375L21.2501 37.5H4.16675V33.3333H18.9584ZM35.4167 31.25V37.5H29.1667V41.6667L20.8334 34.375L29.1667 27.0833V31.25H35.4167Z" fill="#EEEEEE"/>
</svg>
