<svg width="13" height="11" viewBox="0 0 13 11" fill="none" xmlns="http://www.w3.org/2000/svg">
<path d="M1.625 0.785714C1.625 0.351116 1.26191 0 0.8125 0C0.363086 0 0 0.351116 0 0.785714V9.03571C0 10.121 0.908984 11 2.03125 11H12.1875C12.6369 11 13 10.6489 13 10.2143C13 9.77969 12.6369 9.42857 12.1875 9.42857H2.03125C1.80781 9.42857 1.625 9.25179 1.625 9.03571V0.785714ZM11.9488 2.91205C12.2662 2.60513 12.2662 2.1067 11.9488 1.79978C11.6314 1.49286 11.116 1.49286 10.7986 1.79978L8.125 4.38772L6.66758 2.97835C6.3502 2.67143 5.83477 2.67143 5.51738 2.97835L2.67363 5.72835C2.35625 6.03527 2.35625 6.53371 2.67363 6.84062C2.99102 7.14754 3.50645 7.14754 3.82383 6.84062L6.09375 4.64799L7.55117 6.05737C7.86855 6.36429 8.38398 6.36429 8.70137 6.05737L11.9514 2.91451L11.9488 2.91205Z" fill="white"/>
</svg>
