<svg width="263" height="64" viewBox="0 0 263 64" fill="none" xmlns="http://www.w3.org/2000/svg">
<path d="M130.087 19.0238C130.868 20.3254 132.137 20.3254 132.917 19.0238L140.914 5.69569C141.489 4.73773 141.658 3.31121 141.345 2.06169C141.033 0.812183 140.308 0 139.496 0L123.503 0.0104132C122.697 0.0104132 121.966 0.822596 121.653 2.07211C121.341 3.32162 121.516 4.74815 122.084 5.7061L130.081 19.0342L130.087 19.0238Z" fill="#16171A"/>
<path d="M2.148 56V33.6H11.268C13.6573 33.6 15.748 34.08 17.54 35.04C19.3533 35.9787 20.7613 37.2907 21.764 38.976C22.7667 40.6613 23.268 42.6027 23.268 44.8C23.268 46.9973 22.7667 48.9387 21.764 50.624C20.7613 52.3093 19.3533 53.632 17.54 54.592C15.748 55.5307 13.6573 56 11.268 56H2.148ZM4.516 53.952H11.14C13.124 53.952 14.8413 53.568 16.292 52.8C17.764 52.0107 18.9053 50.9333 19.716 49.568C20.5267 48.1813 20.932 46.592 20.932 44.8C20.932 42.9867 20.5267 41.3973 19.716 40.032C18.9053 38.6667 17.764 37.6 16.292 36.832C14.8413 36.0427 13.124 35.648 11.14 35.648H4.516V53.952ZM28.5855 56V33.6H30.9535V56H28.5855ZM48.0658 56.192C46.3591 56.192 44.7804 55.9147 43.3298 55.36C41.9004 54.784 40.6524 53.984 39.5858 52.96C38.5404 51.936 37.7191 50.7307 37.1218 49.344C36.5458 47.9573 36.2578 46.4427 36.2578 44.8C36.2578 43.1573 36.5458 41.6427 37.1218 40.256C37.7191 38.8693 38.5511 37.664 39.6178 36.64C40.6844 35.616 41.9324 34.8267 43.3618 34.272C44.8124 33.696 46.3911 33.408 48.0978 33.408C49.8044 33.408 51.3618 33.6747 52.7698 34.208C54.1991 34.7413 55.4151 35.552 56.4178 36.64L54.9458 38.144C54.0071 37.2053 52.9724 36.5333 51.8418 36.128C50.7111 35.7227 49.4951 35.52 48.1938 35.52C46.8071 35.52 45.5271 35.7547 44.3538 36.224C43.2018 36.672 42.1884 37.3227 41.3138 38.176C40.4604 39.008 39.7884 39.9893 39.2977 41.12C38.8284 42.2293 38.5938 43.456 38.5938 44.8C38.5938 46.1227 38.8284 47.3493 39.2977 48.48C39.7884 49.6107 40.4604 50.6027 41.3138 51.456C42.1884 52.288 43.2018 52.9387 44.3538 53.408C45.5271 53.856 46.7964 54.08 48.1618 54.08C49.4418 54.08 50.6471 53.888 51.7778 53.504C52.9298 53.12 53.9858 52.4693 54.9458 51.552L56.2898 53.344C55.2231 54.2827 53.9751 54.9973 52.5458 55.488C51.1164 55.9573 49.6231 56.192 48.0658 56.192ZM54.0178 53.056V44.8H56.2898V53.344L54.0178 53.056ZM62.9918 56V33.6H65.3598V56H62.9918ZM77 56V35.648H69.128V33.6H87.24V35.648H79.368V56H77ZM86.314 56L96.554 33.6H98.89L109.13 56H106.634L97.226 34.976H98.186L88.778 56H86.314ZM90.346 50.016L91.05 48.096H104.074L104.778 50.016H90.346ZM112.836 56V33.6H115.204V53.952H127.748V56H112.836ZM149.078 56.192C146.22 56.192 143.969 55.3707 142.326 53.728C140.684 52.0853 139.862 49.6533 139.862 46.432V33.6H142.23V46.336C142.23 48.9813 142.828 50.9333 144.022 52.192C145.217 53.4507 146.902 54.08 149.078 54.08C151.276 54.08 152.972 53.4507 154.166 52.192C155.361 50.9333 155.958 48.9813 155.958 46.336V33.6H158.262V46.432C158.262 49.6533 157.441 52.0853 155.798 53.728C154.177 55.3707 151.937 56.192 149.078 56.192ZM169.312 56V35.648H161.441V33.6H179.553V35.648H171.681V56H169.312ZM192.815 56.192C191.13 56.192 189.562 55.9147 188.111 55.36C186.682 54.784 185.434 53.984 184.367 52.96C183.322 51.9147 182.5 50.7093 181.903 49.344C181.327 47.9573 181.039 46.4427 181.039 44.8C181.039 43.1573 181.327 41.6533 181.903 40.288C182.5 38.9013 183.322 37.696 184.367 36.672C185.434 35.6267 186.682 34.8267 188.111 34.272C189.54 33.696 191.108 33.408 192.815 33.408C194.5 33.408 196.058 33.696 197.487 34.272C198.916 34.8267 200.154 35.616 201.199 36.64C202.266 37.664 203.087 38.8693 203.663 40.256C204.26 41.6427 204.559 43.1573 204.559 44.8C204.559 46.4427 204.26 47.9573 203.663 49.344C203.087 50.7307 202.266 51.936 201.199 52.96C200.154 53.984 198.916 54.784 197.487 55.36C196.058 55.9147 194.5 56.192 192.815 56.192ZM192.815 54.08C194.159 54.08 195.396 53.856 196.527 53.408C197.679 52.9387 198.671 52.288 199.503 51.456C200.356 50.6027 201.018 49.6213 201.487 48.512C201.956 47.3813 202.191 46.144 202.191 44.8C202.191 43.456 201.956 42.2293 201.487 41.12C201.018 39.9893 200.356 39.008 199.503 38.176C198.671 37.3227 197.679 36.672 196.527 36.224C195.396 35.7547 194.159 35.52 192.815 35.52C191.471 35.52 190.223 35.7547 189.071 36.224C187.919 36.672 186.916 37.3227 186.063 38.176C185.231 39.008 184.57 39.9893 184.079 41.12C183.61 42.2293 183.375 43.456 183.375 44.8C183.375 46.1227 183.61 47.3493 184.079 48.48C184.57 49.6107 185.231 50.6027 186.063 51.456C186.916 52.288 187.919 52.9387 189.071 53.408C190.223 53.856 191.471 54.08 192.815 54.08ZM209.867 56V33.6H218.251C220.149 33.6 221.781 33.9093 223.147 34.528C224.512 35.1253 225.557 36 226.283 37.152C227.029 38.2827 227.403 39.6587 227.403 41.28C227.403 42.8587 227.029 44.224 226.283 45.376C225.557 46.5067 224.512 47.3813 223.147 48C221.781 48.6187 220.149 48.928 218.251 48.928H211.179L212.235 47.808V56H209.867ZM212.235 48L211.179 46.848H218.187C220.427 46.848 222.123 46.368 223.275 45.408C224.448 44.4267 225.035 43.0507 225.035 41.28C225.035 39.488 224.448 38.1013 223.275 37.12C222.123 36.1387 220.427 35.648 218.187 35.648H211.179L212.235 34.528V48ZM232.523 56V33.6H234.891V56H232.523ZM238.595 56L248.835 33.6H251.171L261.411 56H258.915L249.507 34.976H250.467L241.059 56H238.595ZM242.627 50.016L243.331 48.096H256.355L257.059 50.016H242.627Z" fill="black"/>
</svg>
