<svg width="16" height="17" viewBox="0 0 16 17" fill="none" xmlns="http://www.w3.org/2000/svg">
<path d="M8 16.5C10.1217 16.5 12.1566 15.6571 13.6569 14.1569C15.1571 12.6566 16 10.6217 16 8.5C16 6.37827 15.1571 4.34344 13.6569 2.84315C12.1566 1.34285 10.1217 0.5 8 0.5C5.87827 0.5 3.84344 1.34285 2.34315 2.84315C0.842855 4.34344 0 6.37827 0 8.5C0 10.6217 0.842855 12.6566 2.34315 14.1569C3.84344 15.6571 5.87827 16.5 8 16.5ZM5.75 7.75H10.25C10.6656 7.75 11 8.08437 11 8.5C11 8.91563 10.6656 9.25 10.25 9.25H5.75C5.33437 9.25 5 8.91563 5 8.5C5 8.08437 5.33437 7.75 5.75 7.75Z" fill="#EEEEEE"/>
</svg>
