<svg width="18" height="13" viewBox="0 0 18 13" fill="none" xmlns="http://www.w3.org/2000/svg">
<path d="M2 0.5C0.896875 0.5 0 1.39688 0 2.5V10.5C0 11.6031 0.896875 12.5 2 12.5H16C17.1031 12.5 18 11.6031 18 10.5V2.5C18 1.39688 17.1031 0.5 16 0.5H2ZM3.5 5.5H8.5C8.775 5.5 9 5.725 9 6C9 6.275 8.775 6.5 8.5 6.5H3.5C3.225 6.5 3 6.275 3 6C3 5.725 3.225 5.5 3.5 5.5ZM3 9C3 8.725 3.225 8.5 3.5 8.5H14.5C14.775 8.5 15 8.725 15 9C15 9.275 14.775 9.5 14.5 9.5H3.5C3.225 9.5 3 9.275 3 9ZM11.75 3.5H14.25C14.6656 3.5 15 3.83437 15 4.25V5.75C15 6.16563 14.6656 6.5 14.25 6.5H11.75C11.3344 6.5 11 6.16563 11 5.75V4.25C11 3.83437 11.3344 3.5 11.75 3.5Z" fill="white"/>
</svg>
