<svg width="16" height="17" viewBox="0 0 16 17" fill="none" xmlns="http://www.w3.org/2000/svg">
<path d="M8 16.5C10.1217 16.5 12.1566 15.6571 13.6569 14.1569C15.1571 12.6566 16 10.6217 16 8.5C16 6.37827 15.1571 4.34344 13.6569 2.84315C12.1566 1.34285 10.1217 0.5 8 0.5C5.87827 0.5 3.84344 1.34285 2.34315 2.84315C0.842855 4.34344 0 6.37827 0 8.5C0 10.6217 0.842855 12.6566 2.34315 14.1569C3.84344 15.6571 5.87827 16.5 8 16.5ZM7.25 11.25V9.25H5.25C4.83437 9.25 4.5 8.91562 4.5 8.5C4.5 8.08437 4.83437 7.75 5.25 7.75H7.25V5.75C7.25 5.33437 7.58437 5 8 5C8.41562 5 8.75 5.33437 8.75 5.75V7.75H10.75C11.1656 7.75 11.5 8.08437 11.5 8.5C11.5 8.91562 11.1656 9.25 10.75 9.25H8.75V11.25C8.75 11.6656 8.41562 12 8 12C7.58437 12 7.25 11.6656 7.25 11.25Z" fill="#EEEEEE"/>
</svg>
