<svg width="11" height="11" viewBox="0 0 11 11" fill="none" xmlns="http://www.w3.org/2000/svg">
<path d="M5.5 5.5C6.33354 5.5 7.13294 5.21027 7.72234 4.69454C8.31174 4.17882 8.64286 3.47935 8.64286 2.75C8.64286 2.02065 8.31174 1.32118 7.72234 0.805456C7.13294 0.289731 6.33354 0 5.5 0C4.66646 0 3.86706 0.289731 3.27766 0.805456C2.68826 1.32118 2.35714 2.02065 2.35714 2.75C2.35714 3.47935 2.68826 4.17882 3.27766 4.69454C3.86706 5.21027 4.66646 5.5 5.5 5.5ZM4.3779 6.53125C1.95938 6.53125 0 8.2457 0 10.3619C0 10.7143 0.326563 11 0.729241 11H10.2708C10.6734 11 11 10.7143 11 10.3619C11 8.2457 9.04063 6.53125 6.6221 6.53125H4.3779Z" fill="white"/>
</svg>
