<svg width="14" height="8" viewBox="0 0 14 8" fill="none" xmlns="http://www.w3.org/2000/svg">
<path d="M9.33394 1.60012C8.90379 1.60012 8.55626 1.2426 8.55626 0.800062C8.55626 0.357528 8.90379 0 9.33394 0H13.2223C13.6525 0 14 0.357528 14 0.800062V4.80037C14 5.24291 13.6525 5.60044 13.2223 5.60044C12.7922 5.60044 12.4446 5.24291 12.4446 4.80037V2.73271L8.32782 6.96554C8.02404 7.27807 7.5307 7.27807 7.22692 6.96554L4.66788 4.33284L1.32873 7.76561C1.02495 8.07813 0.531615 8.07813 0.227835 7.76561C-0.075945 7.45308 -0.075945 6.94554 0.227835 6.63302L4.11622 2.63271C4.42 2.32018 4.91334 2.32018 5.21712 2.63271L7.77859 5.26791L11.3437 1.60012H9.33394Z" fill="#00BA3E"/>
</svg>
