<svg width="107" height="26" viewBox="0 0 107 26" fill="none" xmlns="http://www.w3.org/2000/svg">
<path d="M52.7937 5.70715C53.1842 6.09762 53.8183 6.09762 54.2087 5.70715L58.2071 1.70871C58.4944 1.42132 58.5788 0.993362 58.4226 0.618508C58.2664 0.243655 57.9041 0 57.498 0L49.5013 0.00312397C49.0984 0.00312397 48.7329 0.246779 48.5767 0.621632C48.4205 0.996486 48.508 1.42444 48.7922 1.71183L52.7906 5.71027L52.7937 5.70715Z" fill="white"/>
<path d="M1.128 23V14.6H4.8C5.712 14.6 6.512 14.776 7.2 15.128C7.888 15.48 8.424 15.968 8.808 16.592C9.192 17.216 9.384 17.952 9.384 18.8C9.384 19.64 9.192 20.376 8.808 21.008C8.424 21.632 7.888 22.12 7.2 22.472C6.512 22.824 5.712 23 4.8 23H1.128ZM2.688 21.68H4.728C5.36 21.68 5.904 21.56 6.36 21.32C6.824 21.08 7.18 20.744 7.428 20.312C7.684 19.88 7.812 19.376 7.812 18.8C7.812 18.216 7.684 17.712 7.428 17.288C7.18 16.856 6.824 16.52 6.36 16.28C5.904 16.04 5.36 15.92 4.728 15.92H2.688V21.68ZM11.0421 23V14.6H12.6021V23H11.0421ZM18.7981 23.12C18.1421 23.12 17.5381 23.016 16.9861 22.808C16.4421 22.592 15.9661 22.292 15.5581 21.908C15.1501 21.516 14.8341 21.056 14.6101 20.528C14.3861 20 14.2741 19.424 14.2741 18.8C14.2741 18.176 14.3861 17.6 14.6101 17.072C14.8341 16.544 15.1501 16.088 15.5581 15.704C15.9741 15.312 16.4581 15.012 17.0101 14.804C17.5621 14.588 18.1661 14.48 18.8221 14.48C19.5341 14.48 20.1741 14.596 20.7421 14.828C21.3181 15.06 21.8021 15.4 22.1941 15.848L21.2101 16.808C20.8821 16.48 20.5261 16.24 20.1421 16.088C19.7661 15.928 19.3501 15.848 18.8941 15.848C18.4541 15.848 18.0461 15.92 17.6701 16.064C17.2941 16.208 16.9701 16.412 16.6981 16.676C16.4261 16.94 16.2141 17.252 16.0621 17.612C15.9181 17.972 15.8461 18.368 15.8461 18.8C15.8461 19.224 15.9181 19.616 16.0621 19.976C16.2141 20.336 16.4261 20.652 16.6981 20.924C16.9701 21.188 17.2901 21.392 17.6581 21.536C18.0261 21.68 18.4341 21.752 18.8821 21.752C19.2981 21.752 19.6981 21.688 20.0821 21.56C20.4741 21.424 20.8461 21.2 21.1981 20.888L22.0861 22.052C21.6461 22.404 21.1341 22.672 20.5501 22.856C19.9741 23.032 19.3901 23.12 18.7981 23.12ZM20.6101 21.848V18.704H22.0861V22.052L20.6101 21.848ZM24.1436 23V14.6H25.7036V23H24.1436ZM29.6797 23V15.92H26.8957V14.6H34.0237V15.92H31.2397V23H29.6797ZM33.5845 23L37.3645 14.6H38.9005L42.6925 23H41.0605L37.8085 15.428H38.4325L35.1925 23H33.5845ZM35.3245 21.056L35.7445 19.832H40.2805L40.7005 21.056H35.3245ZM43.7608 23V14.6H45.3208V21.68H49.7128V23H43.7608ZM57.8728 23.12C56.7208 23.12 55.8168 22.796 55.1608 22.148C54.5128 21.5 54.1888 20.564 54.1888 19.34V14.6H55.7488V19.28C55.7488 20.144 55.9328 20.772 56.3008 21.164C56.6768 21.556 57.2048 21.752 57.8848 21.752C58.5648 21.752 59.0888 21.556 59.4568 21.164C59.8248 20.772 60.0088 20.144 60.0088 19.28V14.6H61.5448V19.34C61.5448 20.564 61.2168 21.5 60.5608 22.148C59.9128 22.796 59.0168 23.12 57.8728 23.12ZM65.2812 23V15.92H62.4972V14.6H69.6252V15.92H66.8412V23H65.2812ZM74.6148 23.12C73.9588 23.12 73.3548 23.012 72.8028 22.796C72.2508 22.58 71.7708 22.28 71.3628 21.896C70.9548 21.504 70.6388 21.048 70.4148 20.528C70.1908 20 70.0788 19.424 70.0788 18.8C70.0788 18.176 70.1908 17.604 70.4148 17.084C70.6388 16.556 70.9548 16.1 71.3628 15.716C71.7708 15.324 72.2508 15.02 72.8028 14.804C73.3548 14.588 73.9548 14.48 74.6028 14.48C75.2588 14.48 75.8588 14.588 76.4028 14.804C76.9548 15.02 77.4348 15.324 77.8428 15.716C78.2508 16.1 78.5668 16.556 78.7908 17.084C79.0148 17.604 79.1268 18.176 79.1268 18.8C79.1268 19.424 79.0148 20 78.7908 20.528C78.5668 21.056 78.2508 21.512 77.8428 21.896C77.4348 22.28 76.9548 22.58 76.4028 22.796C75.8588 23.012 75.2628 23.12 74.6148 23.12ZM74.6028 21.752C75.0268 21.752 75.4188 21.68 75.7788 21.536C76.1388 21.392 76.4508 21.188 76.7148 20.924C76.9788 20.652 77.1828 20.34 77.3268 19.988C77.4788 19.628 77.5548 19.232 77.5548 18.8C77.5548 18.368 77.4788 17.976 77.3268 17.624C77.1828 17.264 76.9788 16.952 76.7148 16.688C76.4508 16.416 76.1388 16.208 75.7788 16.064C75.4188 15.92 75.0268 15.848 74.6028 15.848C74.1788 15.848 73.7868 15.92 73.4268 16.064C73.0748 16.208 72.7628 16.416 72.4908 16.688C72.2268 16.952 72.0188 17.264 71.8668 17.624C71.7228 17.976 71.6508 18.368 71.6508 18.8C71.6508 19.224 71.7228 19.616 71.8668 19.976C72.0188 20.336 72.2268 20.652 72.4908 20.924C72.7548 21.188 73.0668 21.392 73.4268 21.536C73.7868 21.68 74.1788 21.752 74.6028 21.752ZM80.7803 23V14.6H84.2363C84.9803 14.6 85.6163 14.72 86.1443 14.96C86.6803 15.2 87.0923 15.544 87.3803 15.992C87.6683 16.44 87.8123 16.972 87.8123 17.588C87.8123 18.204 87.6683 18.736 87.3803 19.184C87.0923 19.632 86.6803 19.976 86.1443 20.216C85.6163 20.456 84.9803 20.576 84.2363 20.576H81.6443L82.3403 19.844V23H80.7803ZM82.3403 20.012L81.6443 19.256H84.1643C84.8523 19.256 85.3683 19.112 85.7123 18.824C86.0643 18.528 86.2403 18.116 86.2403 17.588C86.2403 17.052 86.0643 16.64 85.7123 16.352C85.3683 16.064 84.8523 15.92 84.1643 15.92H81.6443L82.3403 15.152V20.012ZM89.3702 23V14.6H90.9302V23H89.3702ZM92.0142 23L95.7942 14.6H97.3302L101.122 23H99.4902L96.2382 15.428H96.8622L93.6222 23H92.0142ZM93.7542 21.056L94.1742 19.832H98.7102L99.1302 21.056H93.7542Z" fill="white"/>
</svg>
